<mxfile host="Electron" agent="Mozilla/5.0 (Macintosh; Intel Mac OS X 10_15_7) AppleWebKit/537.36 (KHTML, like Gecko) draw.io/26.1.1 Chrome/132.0.6834.210 Electron/34.3.3 Safari/537.36" version="26.1.1">
  <diagram name="Page-1" id="d9155KXEtxhoHHdTG0I3">
    <mxGraphModel dx="1404" dy="1905" grid="1" gridSize="10" guides="1" tooltips="1" connect="1" arrows="1" fold="1" page="1" pageScale="1" pageWidth="850" pageHeight="1100" math="0" shadow="0">
      <root>
        <mxCell id="0" />
        <mxCell id="1" parent="0" />
        <mxCell id="qYFZ3KALTNU94oA9vc0l-17" value="" style="html=1;whiteSpace=wrap;" vertex="1" parent="1">
          <mxGeometry x="370" y="-27.5" width="560" height="535" as="geometry" />
        </mxCell>
        <mxCell id="qYFZ3KALTNU94oA9vc0l-1" value="Patient" style="shape=umlActor;verticalLabelPosition=bottom;verticalAlign=top;html=1;" vertex="1" parent="1">
          <mxGeometry x="990" y="50" width="30" height="60" as="geometry" />
        </mxCell>
        <mxCell id="qYFZ3KALTNU94oA9vc0l-6" value="Make Appointment" style="ellipse;whiteSpace=wrap;html=1;" vertex="1" parent="1">
          <mxGeometry x="670" y="20" width="140" height="50" as="geometry" />
        </mxCell>
        <mxCell id="qYFZ3KALTNU94oA9vc0l-10" value="" style="endArrow=none;html=1;rounded=0;entryX=0.5;entryY=1;entryDx=0;entryDy=0;" edge="1" parent="1" source="qYFZ3KALTNU94oA9vc0l-78" target="qYFZ3KALTNU94oA9vc0l-87">
          <mxGeometry width="50" height="50" relative="1" as="geometry">
            <mxPoint x="980" y="390" as="sourcePoint" />
            <mxPoint x="799.9999999999991" y="135" as="targetPoint" />
          </mxGeometry>
        </mxCell>
        <mxCell id="qYFZ3KALTNU94oA9vc0l-11" value="&lt;font style=&quot;font-size: 14px;&quot;&gt;*&lt;/font&gt;" style="edgeLabel;html=1;align=center;verticalAlign=middle;resizable=0;points=[];" vertex="1" connectable="0" parent="qYFZ3KALTNU94oA9vc0l-10">
          <mxGeometry x="-0.5465" relative="1" as="geometry">
            <mxPoint as="offset" />
          </mxGeometry>
        </mxCell>
        <mxCell id="qYFZ3KALTNU94oA9vc0l-12" value="&lt;font style=&quot;font-size: 14px;&quot;&gt;*&lt;/font&gt;" style="edgeLabel;html=1;align=center;verticalAlign=middle;resizable=0;points=[];" vertex="1" connectable="0" parent="qYFZ3KALTNU94oA9vc0l-10">
          <mxGeometry x="0.4589" y="2" relative="1" as="geometry">
            <mxPoint as="offset" />
          </mxGeometry>
        </mxCell>
        <mxCell id="qYFZ3KALTNU94oA9vc0l-13" value="" style="endArrow=none;html=1;rounded=0;entryX=0.995;entryY=0.612;entryDx=0;entryDy=0;exitX=0.299;exitY=0.173;exitDx=0;exitDy=0;exitPerimeter=0;entryPerimeter=0;" edge="1" parent="1" source="qYFZ3KALTNU94oA9vc0l-77" target="qYFZ3KALTNU94oA9vc0l-84">
          <mxGeometry width="50" height="50" relative="1" as="geometry">
            <mxPoint x="940" y="70" as="sourcePoint" />
            <mxPoint x="420" y="140" as="targetPoint" />
          </mxGeometry>
        </mxCell>
        <mxCell id="qYFZ3KALTNU94oA9vc0l-14" value="&lt;font style=&quot;font-size: 14px;&quot;&gt;*&lt;/font&gt;" style="edgeLabel;html=1;align=center;verticalAlign=middle;resizable=0;points=[];" vertex="1" connectable="0" parent="qYFZ3KALTNU94oA9vc0l-13">
          <mxGeometry x="-0.5465" relative="1" as="geometry">
            <mxPoint as="offset" />
          </mxGeometry>
        </mxCell>
        <mxCell id="qYFZ3KALTNU94oA9vc0l-15" value="&lt;font style=&quot;font-size: 14px;&quot;&gt;*&lt;/font&gt;" style="edgeLabel;html=1;align=center;verticalAlign=middle;resizable=0;points=[];" vertex="1" connectable="0" parent="qYFZ3KALTNU94oA9vc0l-13">
          <mxGeometry x="0.4589" y="2" relative="1" as="geometry">
            <mxPoint as="offset" />
          </mxGeometry>
        </mxCell>
        <mxCell id="qYFZ3KALTNU94oA9vc0l-18" value="Dentist&#39;s Office System" style="text;align=center;fontStyle=1;verticalAlign=middle;spacingLeft=3;spacingRight=3;strokeColor=none;rotatable=0;points=[[0,0.5],[1,0.5]];portConstraint=eastwest;html=1;" vertex="1" parent="1">
          <mxGeometry x="615" y="-18.15" width="80" height="26" as="geometry" />
        </mxCell>
        <mxCell id="qYFZ3KALTNU94oA9vc0l-19" value="Receptionist" style="shape=umlActor;verticalLabelPosition=bottom;verticalAlign=top;html=1;" vertex="1" parent="1">
          <mxGeometry x="300" y="200" width="30" height="60" as="geometry" />
        </mxCell>
        <mxCell id="qYFZ3KALTNU94oA9vc0l-25" value="Send Appointment&amp;nbsp;&lt;div&gt;Reminder&lt;/div&gt;" style="ellipse;whiteSpace=wrap;html=1;" vertex="1" parent="1">
          <mxGeometry x="490" y="400" width="135" height="50" as="geometry" />
        </mxCell>
        <mxCell id="qYFZ3KALTNU94oA9vc0l-26" value="" style="endArrow=none;html=1;rounded=0;entryX=0;entryY=0.5;entryDx=0;entryDy=0;" edge="1" parent="1" target="qYFZ3KALTNU94oA9vc0l-25">
          <mxGeometry width="50" height="50" relative="1" as="geometry">
            <mxPoint x="340" y="230" as="sourcePoint" />
            <mxPoint x="420.00000000000034" y="188" as="targetPoint" />
          </mxGeometry>
        </mxCell>
        <mxCell id="qYFZ3KALTNU94oA9vc0l-27" value="&lt;font style=&quot;font-size: 14px;&quot;&gt;*&lt;/font&gt;" style="edgeLabel;html=1;align=center;verticalAlign=middle;resizable=0;points=[];" vertex="1" connectable="0" parent="qYFZ3KALTNU94oA9vc0l-26">
          <mxGeometry x="-0.5465" relative="1" as="geometry">
            <mxPoint as="offset" />
          </mxGeometry>
        </mxCell>
        <mxCell id="qYFZ3KALTNU94oA9vc0l-28" value="&lt;font style=&quot;font-size: 14px;&quot;&gt;*&lt;/font&gt;" style="edgeLabel;html=1;align=center;verticalAlign=middle;resizable=0;points=[];" vertex="1" connectable="0" parent="qYFZ3KALTNU94oA9vc0l-26">
          <mxGeometry x="0.4589" y="2" relative="1" as="geometry">
            <mxPoint as="offset" />
          </mxGeometry>
        </mxCell>
        <mxCell id="qYFZ3KALTNU94oA9vc0l-29" value="Check Availability" style="ellipse;whiteSpace=wrap;html=1;" vertex="1" parent="1">
          <mxGeometry x="700" y="390" width="140" height="50" as="geometry" />
        </mxCell>
        <mxCell id="qYFZ3KALTNU94oA9vc0l-35" value="" style="endArrow=classic;html=1;rounded=0;entryX=0;entryY=0.5;entryDx=0;entryDy=0;exitX=1;exitY=0.5;exitDx=0;exitDy=0;" edge="1" parent="1" source="qYFZ3KALTNU94oA9vc0l-37" target="qYFZ3KALTNU94oA9vc0l-29">
          <mxGeometry width="50" height="50" relative="1" as="geometry">
            <mxPoint x="480" y="420" as="sourcePoint" />
            <mxPoint x="490" y="390" as="targetPoint" />
          </mxGeometry>
        </mxCell>
        <mxCell id="qYFZ3KALTNU94oA9vc0l-36" value="&amp;lt;&amp;lt;Includes&amp;gt;&amp;gt;" style="edgeLabel;html=1;align=center;verticalAlign=middle;resizable=0;points=[];" vertex="1" connectable="0" parent="qYFZ3KALTNU94oA9vc0l-35">
          <mxGeometry x="-0.0961" y="-2" relative="1" as="geometry">
            <mxPoint as="offset" />
          </mxGeometry>
        </mxCell>
        <mxCell id="qYFZ3KALTNU94oA9vc0l-37" value="Schedule Appointment" style="ellipse;whiteSpace=wrap;html=1;" vertex="1" parent="1">
          <mxGeometry x="480" y="300" width="150" height="50" as="geometry" />
        </mxCell>
        <mxCell id="qYFZ3KALTNU94oA9vc0l-39" value="" style="endArrow=none;html=1;rounded=0;entryX=0;entryY=0.5;entryDx=0;entryDy=0;" edge="1" parent="1" target="qYFZ3KALTNU94oA9vc0l-37">
          <mxGeometry width="50" height="50" relative="1" as="geometry">
            <mxPoint x="340" y="230" as="sourcePoint" />
            <mxPoint x="435" y="275" as="targetPoint" />
          </mxGeometry>
        </mxCell>
        <mxCell id="qYFZ3KALTNU94oA9vc0l-40" value="&lt;font style=&quot;font-size: 14px;&quot;&gt;*&lt;/font&gt;" style="edgeLabel;html=1;align=center;verticalAlign=middle;resizable=0;points=[];" vertex="1" connectable="0" parent="qYFZ3KALTNU94oA9vc0l-39">
          <mxGeometry x="-0.5465" relative="1" as="geometry">
            <mxPoint as="offset" />
          </mxGeometry>
        </mxCell>
        <mxCell id="qYFZ3KALTNU94oA9vc0l-41" value="&lt;font style=&quot;font-size: 14px;&quot;&gt;*&lt;/font&gt;" style="edgeLabel;html=1;align=center;verticalAlign=middle;resizable=0;points=[];" vertex="1" connectable="0" parent="qYFZ3KALTNU94oA9vc0l-39">
          <mxGeometry x="0.4589" y="2" relative="1" as="geometry">
            <mxPoint as="offset" />
          </mxGeometry>
        </mxCell>
        <mxCell id="qYFZ3KALTNU94oA9vc0l-70" value="" style="endArrow=classic;html=1;rounded=0;entryX=0.5;entryY=1;entryDx=0;entryDy=0;exitX=0.5;exitY=0;exitDx=0;exitDy=0;" edge="1" parent="1" source="qYFZ3KALTNU94oA9vc0l-72" target="qYFZ3KALTNU94oA9vc0l-84">
          <mxGeometry width="50" height="50" relative="1" as="geometry">
            <mxPoint x="435" y="147.5" as="sourcePoint" />
            <mxPoint x="535" y="55" as="targetPoint" />
          </mxGeometry>
        </mxCell>
        <mxCell id="qYFZ3KALTNU94oA9vc0l-71" value="&amp;lt;&amp;lt;Extends&amp;gt;&amp;gt;" style="edgeLabel;html=1;align=center;verticalAlign=middle;resizable=0;points=[];" vertex="1" connectable="0" parent="qYFZ3KALTNU94oA9vc0l-70">
          <mxGeometry x="-0.0961" y="-2" relative="1" as="geometry">
            <mxPoint as="offset" />
          </mxGeometry>
        </mxCell>
        <mxCell id="qYFZ3KALTNU94oA9vc0l-72" value="Complete Patient Information" style="ellipse;whiteSpace=wrap;html=1;" vertex="1" parent="1">
          <mxGeometry x="770" y="250" width="140" height="50" as="geometry" />
        </mxCell>
        <mxCell id="qYFZ3KALTNU94oA9vc0l-73" value="" style="endArrow=block;endFill=0;endSize=12;html=1;rounded=0;" edge="1" parent="1">
          <mxGeometry width="160" relative="1" as="geometry">
            <mxPoint x="1002" y="180" as="sourcePoint" />
            <mxPoint x="1002.3000000000001" y="137.5" as="targetPoint" />
          </mxGeometry>
        </mxCell>
        <mxCell id="qYFZ3KALTNU94oA9vc0l-74" value="" style="endArrow=none;html=1;rounded=0;" edge="1" parent="1">
          <mxGeometry width="50" height="50" relative="1" as="geometry">
            <mxPoint x="960" y="180" as="sourcePoint" />
            <mxPoint x="1040" y="180" as="targetPoint" />
          </mxGeometry>
        </mxCell>
        <mxCell id="qYFZ3KALTNU94oA9vc0l-75" value="" style="endArrow=none;html=1;rounded=0;" edge="1" parent="1">
          <mxGeometry width="50" height="50" relative="1" as="geometry">
            <mxPoint x="960" y="220" as="sourcePoint" />
            <mxPoint x="960" y="180" as="targetPoint" />
          </mxGeometry>
        </mxCell>
        <mxCell id="qYFZ3KALTNU94oA9vc0l-76" value="" style="endArrow=none;html=1;rounded=0;exitX=0.667;exitY=0;exitDx=0;exitDy=0;exitPerimeter=0;" edge="1" parent="1" source="qYFZ3KALTNU94oA9vc0l-78">
          <mxGeometry width="50" height="50" relative="1" as="geometry">
            <mxPoint x="1040" y="220" as="sourcePoint" />
            <mxPoint x="1040" y="180" as="targetPoint" />
          </mxGeometry>
        </mxCell>
        <mxCell id="qYFZ3KALTNU94oA9vc0l-77" value="New Patient" style="shape=umlActor;verticalLabelPosition=bottom;verticalAlign=top;html=1;" vertex="1" parent="1">
          <mxGeometry x="940" y="210" width="30" height="60" as="geometry" />
        </mxCell>
        <mxCell id="qYFZ3KALTNU94oA9vc0l-78" value="Old Patient" style="shape=umlActor;verticalLabelPosition=bottom;verticalAlign=top;html=1;" vertex="1" parent="1">
          <mxGeometry x="1020" y="490" width="30" height="60" as="geometry" />
        </mxCell>
        <mxCell id="qYFZ3KALTNU94oA9vc0l-79" value="" style="endArrow=block;endFill=0;endSize=12;html=1;rounded=0;" edge="1" parent="1">
          <mxGeometry width="160" relative="1" as="geometry">
            <mxPoint x="741.7" y="112.5" as="sourcePoint" />
            <mxPoint x="742" y="70" as="targetPoint" />
          </mxGeometry>
        </mxCell>
        <mxCell id="qYFZ3KALTNU94oA9vc0l-80" value="" style="endArrow=none;html=1;rounded=0;" edge="1" parent="1">
          <mxGeometry width="50" height="50" relative="1" as="geometry">
            <mxPoint x="620" y="113" as="sourcePoint" />
            <mxPoint x="779.7" y="112.5" as="targetPoint" />
          </mxGeometry>
        </mxCell>
        <mxCell id="qYFZ3KALTNU94oA9vc0l-81" value="" style="endArrow=none;html=1;rounded=0;exitX=0.5;exitY=0;exitDx=0;exitDy=0;" edge="1" parent="1" source="qYFZ3KALTNU94oA9vc0l-87">
          <mxGeometry width="50" height="50" relative="1" as="geometry">
            <mxPoint x="699.7" y="152.5" as="sourcePoint" />
            <mxPoint x="620" y="110" as="targetPoint" />
          </mxGeometry>
        </mxCell>
        <mxCell id="qYFZ3KALTNU94oA9vc0l-82" value="" style="endArrow=none;html=1;rounded=0;" edge="1" parent="1">
          <mxGeometry width="50" height="50" relative="1" as="geometry">
            <mxPoint x="779.7" y="152.5" as="sourcePoint" />
            <mxPoint x="779.7" y="112.5" as="targetPoint" />
          </mxGeometry>
        </mxCell>
        <mxCell id="qYFZ3KALTNU94oA9vc0l-84" value="New Patient Appointment" style="ellipse;whiteSpace=wrap;html=1;" vertex="1" parent="1">
          <mxGeometry x="720" y="147.5" width="140" height="50" as="geometry" />
        </mxCell>
        <mxCell id="qYFZ3KALTNU94oA9vc0l-87" value="Old Patient Appointment" style="ellipse;whiteSpace=wrap;html=1;" vertex="1" parent="1">
          <mxGeometry x="550" y="140" width="140" height="50" as="geometry" />
        </mxCell>
        <mxCell id="qYFZ3KALTNU94oA9vc0l-91" value="" style="endArrow=classic;html=1;rounded=0;entryX=0;entryY=1;entryDx=0;entryDy=0;exitX=0.5;exitY=0;exitDx=0;exitDy=0;" edge="1" parent="1" source="qYFZ3KALTNU94oA9vc0l-93" target="qYFZ3KALTNU94oA9vc0l-87">
          <mxGeometry width="50" height="50" relative="1" as="geometry">
            <mxPoint x="115" y="121.85000000000002" as="sourcePoint" />
            <mxPoint x="486.20000000000005" y="170" as="targetPoint" />
          </mxGeometry>
        </mxCell>
        <mxCell id="qYFZ3KALTNU94oA9vc0l-92" value="&amp;lt;&amp;lt;Extends&amp;gt;&amp;gt;" style="edgeLabel;html=1;align=center;verticalAlign=middle;resizable=0;points=[];" vertex="1" connectable="0" parent="qYFZ3KALTNU94oA9vc0l-91">
          <mxGeometry x="-0.0961" y="-2" relative="1" as="geometry">
            <mxPoint as="offset" />
          </mxGeometry>
        </mxCell>
        <mxCell id="qYFZ3KALTNU94oA9vc0l-93" value="Update Patient Information" style="ellipse;whiteSpace=wrap;html=1;" vertex="1" parent="1">
          <mxGeometry x="450" y="224.35000000000002" width="140" height="50" as="geometry" />
        </mxCell>
        <mxCell id="qYFZ3KALTNU94oA9vc0l-94" value="" style="strokeWidth=2;html=1;shape=mxgraph.flowchart.start_2;whiteSpace=wrap;fillColor=#545454;" vertex="1" parent="1">
          <mxGeometry x="480" y="620" width="40" height="40" as="geometry" />
        </mxCell>
        <mxCell id="qYFZ3KALTNU94oA9vc0l-95" value="Create Appointment" style="rounded=1;whiteSpace=wrap;html=1;" vertex="1" parent="1">
          <mxGeometry x="330" y="810" width="150" height="40" as="geometry" />
        </mxCell>
        <mxCell id="qYFZ3KALTNU94oA9vc0l-96" value="[Old Patient]" style="text;strokeColor=none;fillColor=none;align=left;verticalAlign=middle;spacingLeft=4;spacingRight=4;overflow=hidden;points=[[0,0.5],[1,0.5]];portConstraint=eastwest;rotatable=0;whiteSpace=wrap;html=1;" vertex="1" parent="1">
          <mxGeometry x="405" y="940" width="80" height="30" as="geometry" />
        </mxCell>
        <mxCell id="qYFZ3KALTNU94oA9vc0l-97" value="" style="ellipse;whiteSpace=wrap;html=1;aspect=fixed;" vertex="1" parent="1">
          <mxGeometry x="585" y="1710" width="50" height="50" as="geometry" />
        </mxCell>
        <mxCell id="qYFZ3KALTNU94oA9vc0l-98" value="" style="strokeWidth=2;html=1;shape=mxgraph.flowchart.start_2;whiteSpace=wrap;fillColor=#545454;" vertex="1" parent="1">
          <mxGeometry x="590" y="1715" width="40" height="40" as="geometry" />
        </mxCell>
        <mxCell id="qYFZ3KALTNU94oA9vc0l-99" value="" style="rhombus;whiteSpace=wrap;html=1;" vertex="1" parent="1">
          <mxGeometry x="480" y="950" width="40" height="40" as="geometry" />
        </mxCell>
        <mxCell id="qYFZ3KALTNU94oA9vc0l-101" value="" style="endArrow=classic;html=1;rounded=0;exitX=0.5;exitY=1;exitDx=0;exitDy=0;" edge="1" parent="1">
          <mxGeometry width="50" height="50" relative="1" as="geometry">
            <mxPoint x="499.64" y="920" as="sourcePoint" />
            <mxPoint x="499.64" y="950" as="targetPoint" />
          </mxGeometry>
        </mxCell>
        <mxCell id="qYFZ3KALTNU94oA9vc0l-102" value="" style="endArrow=none;html=1;rounded=0;" edge="1" parent="1">
          <mxGeometry width="50" height="50" relative="1" as="geometry">
            <mxPoint x="410" y="970" as="sourcePoint" />
            <mxPoint x="480" y="970" as="targetPoint" />
          </mxGeometry>
        </mxCell>
        <mxCell id="qYFZ3KALTNU94oA9vc0l-103" value="" style="endArrow=none;html=1;rounded=0;" edge="1" parent="1">
          <mxGeometry width="50" height="50" relative="1" as="geometry">
            <mxPoint x="520" y="969.68" as="sourcePoint" />
            <mxPoint x="710" y="970" as="targetPoint" />
          </mxGeometry>
        </mxCell>
        <mxCell id="qYFZ3KALTNU94oA9vc0l-104" value="[New Patient]" style="text;strokeColor=none;fillColor=none;align=left;verticalAlign=middle;spacingLeft=4;spacingRight=4;overflow=hidden;points=[[0,0.5],[1,0.5]];portConstraint=eastwest;rotatable=0;whiteSpace=wrap;html=1;" vertex="1" parent="1">
          <mxGeometry x="535" y="940" width="100" height="30" as="geometry" />
        </mxCell>
        <mxCell id="qYFZ3KALTNU94oA9vc0l-105" value="" style="endArrow=classic;html=1;rounded=0;exitX=0.5;exitY=1;exitDx=0;exitDy=0;" edge="1" parent="1">
          <mxGeometry width="50" height="50" relative="1" as="geometry">
            <mxPoint x="410" y="970" as="sourcePoint" />
            <mxPoint x="410" y="1000" as="targetPoint" />
          </mxGeometry>
        </mxCell>
        <mxCell id="qYFZ3KALTNU94oA9vc0l-106" value="" style="endArrow=classic;html=1;rounded=0;exitX=0.5;exitY=1;exitDx=0;exitDy=0;" edge="1" parent="1">
          <mxGeometry width="50" height="50" relative="1" as="geometry">
            <mxPoint x="709.78" y="970" as="sourcePoint" />
            <mxPoint x="709.78" y="1000" as="targetPoint" />
          </mxGeometry>
        </mxCell>
        <mxCell id="qYFZ3KALTNU94oA9vc0l-107" value="Use Existing Patient&amp;nbsp;&lt;div&gt;Entry&lt;/div&gt;" style="rounded=1;whiteSpace=wrap;html=1;" vertex="1" parent="1">
          <mxGeometry x="330" y="1000" width="150" height="40" as="geometry" />
        </mxCell>
        <mxCell id="qYFZ3KALTNU94oA9vc0l-108" value="Create&amp;nbsp;&lt;div&gt;Incomplete Entry&lt;/div&gt;" style="rounded=1;whiteSpace=wrap;html=1;" vertex="1" parent="1">
          <mxGeometry x="635" y="1000" width="150" height="40" as="geometry" />
        </mxCell>
        <mxCell id="qYFZ3KALTNU94oA9vc0l-118" value="Check Appointment Avalaibility" style="rounded=1;whiteSpace=wrap;html=1;" vertex="1" parent="1">
          <mxGeometry x="320" y="1100" width="150" height="40" as="geometry" />
        </mxCell>
        <mxCell id="qYFZ3KALTNU94oA9vc0l-119" value="" style="endArrow=classic;html=1;rounded=0;exitX=0.5;exitY=1;exitDx=0;exitDy=0;" edge="1" parent="1">
          <mxGeometry width="50" height="50" relative="1" as="geometry">
            <mxPoint x="399.59999999999997" y="1140" as="sourcePoint" />
            <mxPoint x="399.59999999999997" y="1170" as="targetPoint" />
          </mxGeometry>
        </mxCell>
        <mxCell id="qYFZ3KALTNU94oA9vc0l-120" value="Schedule Appointment" style="rounded=1;whiteSpace=wrap;html=1;" vertex="1" parent="1">
          <mxGeometry x="320" y="1170" width="150" height="40" as="geometry" />
        </mxCell>
        <mxCell id="qYFZ3KALTNU94oA9vc0l-121" value="[Present]" style="text;strokeColor=none;fillColor=none;align=left;verticalAlign=middle;spacingLeft=4;spacingRight=4;overflow=hidden;points=[[0,0.5],[1,0.5]];portConstraint=eastwest;rotatable=0;whiteSpace=wrap;html=1;" vertex="1" parent="1">
          <mxGeometry x="280" y="1320" width="80" height="30" as="geometry" />
        </mxCell>
        <mxCell id="qYFZ3KALTNU94oA9vc0l-125" value="" style="endArrow=classic;html=1;rounded=0;exitX=0.472;exitY=0.993;exitDx=0;exitDy=0;exitPerimeter=0;entryX=0.5;entryY=0;entryDx=0;entryDy=0;" edge="1" parent="1" source="qYFZ3KALTNU94oA9vc0l-147" target="qYFZ3KALTNU94oA9vc0l-188">
          <mxGeometry width="50" height="50" relative="1" as="geometry">
            <mxPoint x="694.58" y="1290" as="sourcePoint" />
            <mxPoint x="705" y="1320" as="targetPoint" />
          </mxGeometry>
        </mxCell>
        <mxCell id="qYFZ3KALTNU94oA9vc0l-126" value="" style="endArrow=none;html=1;rounded=0;entryX=0.87;entryY=0.995;entryDx=0;entryDy=0;entryPerimeter=0;" edge="1" parent="1" target="qYFZ3KALTNU94oA9vc0l-162">
          <mxGeometry width="50" height="50" relative="1" as="geometry">
            <mxPoint x="415" y="1350" as="sourcePoint" />
            <mxPoint x="485" y="1350" as="targetPoint" />
          </mxGeometry>
        </mxCell>
        <mxCell id="qYFZ3KALTNU94oA9vc0l-128" value="Complete Patient Information" style="rounded=1;whiteSpace=wrap;html=1;" vertex="1" parent="1">
          <mxGeometry x="635" y="1540" width="150" height="40" as="geometry" />
        </mxCell>
        <mxCell id="qYFZ3KALTNU94oA9vc0l-130" value="" style="endArrow=none;html=1;rounded=0;entryX=0;entryY=0.5;entryDx=0;entryDy=0;" edge="1" parent="1" target="qYFZ3KALTNU94oA9vc0l-149">
          <mxGeometry width="50" height="50" relative="1" as="geometry">
            <mxPoint x="230" y="1350" as="sourcePoint" />
            <mxPoint x="350" y="1290" as="targetPoint" />
          </mxGeometry>
        </mxCell>
        <mxCell id="qYFZ3KALTNU94oA9vc0l-135" value="" style="endArrow=classic;html=1;rounded=0;entryX=1;entryY=0.5;entryDx=0;entryDy=0;" edge="1" parent="1" target="qYFZ3KALTNU94oA9vc0l-175">
          <mxGeometry width="50" height="50" relative="1" as="geometry">
            <mxPoint x="520" y="1480" as="sourcePoint" />
            <mxPoint x="395" y="1460" as="targetPoint" />
          </mxGeometry>
        </mxCell>
        <mxCell id="qYFZ3KALTNU94oA9vc0l-136" value="Send Reminder" style="rounded=1;whiteSpace=wrap;html=1;" vertex="1" parent="1">
          <mxGeometry x="320" y="1240" width="150" height="40" as="geometry" />
        </mxCell>
        <mxCell id="qYFZ3KALTNU94oA9vc0l-140" value="" style="endArrow=classic;html=1;rounded=0;" edge="1" parent="1">
          <mxGeometry width="50" height="50" relative="1" as="geometry">
            <mxPoint x="400" y="1210" as="sourcePoint" />
            <mxPoint x="400" y="1240" as="targetPoint" />
          </mxGeometry>
        </mxCell>
        <mxCell id="qYFZ3KALTNU94oA9vc0l-141" value="" style="endArrow=classic;html=1;rounded=0;exitX=0.467;exitY=1.035;exitDx=0;exitDy=0;exitPerimeter=0;" edge="1" parent="1" source="qYFZ3KALTNU94oA9vc0l-107">
          <mxGeometry width="50" height="50" relative="1" as="geometry">
            <mxPoint x="420" y="980" as="sourcePoint" />
            <mxPoint x="400" y="1100" as="targetPoint" />
          </mxGeometry>
        </mxCell>
        <mxCell id="qYFZ3KALTNU94oA9vc0l-142" value="" style="endArrow=classic;html=1;rounded=0;exitX=0.467;exitY=1.035;exitDx=0;exitDy=0;exitPerimeter=0;" edge="1" parent="1">
          <mxGeometry width="50" height="50" relative="1" as="geometry">
            <mxPoint x="709.7800000000001" y="1041" as="sourcePoint" />
            <mxPoint x="710.1800000000001" y="1100" as="targetPoint" />
          </mxGeometry>
        </mxCell>
        <mxCell id="qYFZ3KALTNU94oA9vc0l-143" value="Check Appointment Avalaibility" style="rounded=1;whiteSpace=wrap;html=1;" vertex="1" parent="1">
          <mxGeometry x="630" y="1100" width="150" height="40" as="geometry" />
        </mxCell>
        <mxCell id="qYFZ3KALTNU94oA9vc0l-144" value="" style="endArrow=classic;html=1;rounded=0;exitX=0.5;exitY=1;exitDx=0;exitDy=0;" edge="1" parent="1">
          <mxGeometry width="50" height="50" relative="1" as="geometry">
            <mxPoint x="709.7799999999999" y="1140" as="sourcePoint" />
            <mxPoint x="709.7799999999999" y="1170" as="targetPoint" />
          </mxGeometry>
        </mxCell>
        <mxCell id="qYFZ3KALTNU94oA9vc0l-145" value="Schedule Appointment" style="rounded=1;whiteSpace=wrap;html=1;" vertex="1" parent="1">
          <mxGeometry x="635" y="1170" width="150" height="40" as="geometry" />
        </mxCell>
        <mxCell id="qYFZ3KALTNU94oA9vc0l-146" value="" style="endArrow=classic;html=1;rounded=0;exitX=0.467;exitY=0.98;exitDx=0;exitDy=0;exitPerimeter=0;entryX=0.465;entryY=-0.032;entryDx=0;entryDy=0;entryPerimeter=0;" edge="1" parent="1">
          <mxGeometry width="50" height="50" relative="1" as="geometry">
            <mxPoint x="710.0800000000002" y="1209.9999999999998" as="sourcePoint" />
            <mxPoint x="709.78" y="1239.52" as="targetPoint" />
          </mxGeometry>
        </mxCell>
        <mxCell id="qYFZ3KALTNU94oA9vc0l-147" value="Send Reminder" style="rounded=1;whiteSpace=wrap;html=1;" vertex="1" parent="1">
          <mxGeometry x="635" y="1240" width="150" height="40" as="geometry" />
        </mxCell>
        <mxCell id="qYFZ3KALTNU94oA9vc0l-148" value="" style="endArrow=classic;html=1;rounded=0;exitX=0.5;exitY=1;exitDx=0;exitDy=0;" edge="1" parent="1" source="qYFZ3KALTNU94oA9vc0l-136">
          <mxGeometry width="50" height="50" relative="1" as="geometry">
            <mxPoint x="510" y="1440" as="sourcePoint" />
            <mxPoint x="395" y="1330" as="targetPoint" />
          </mxGeometry>
        </mxCell>
        <mxCell id="qYFZ3KALTNU94oA9vc0l-149" value="" style="rhombus;whiteSpace=wrap;html=1;" vertex="1" parent="1">
          <mxGeometry x="375" y="1330" width="40" height="40" as="geometry" />
        </mxCell>
        <mxCell id="qYFZ3KALTNU94oA9vc0l-150" value="" style="endArrow=classic;html=1;rounded=0;entryX=0;entryY=0.5;entryDx=0;entryDy=0;" edge="1" parent="1" target="qYFZ3KALTNU94oA9vc0l-175">
          <mxGeometry width="50" height="50" relative="1" as="geometry">
            <mxPoint x="230" y="1480" as="sourcePoint" />
            <mxPoint x="370" y="1480" as="targetPoint" />
          </mxGeometry>
        </mxCell>
        <mxCell id="qYFZ3KALTNU94oA9vc0l-152" value="" style="endArrow=none;html=1;rounded=0;" edge="1" parent="1">
          <mxGeometry width="50" height="50" relative="1" as="geometry">
            <mxPoint x="410" y="1559.68" as="sourcePoint" />
            <mxPoint x="480" y="1560.0600000000002" as="targetPoint" />
          </mxGeometry>
        </mxCell>
        <mxCell id="qYFZ3KALTNU94oA9vc0l-153" value="[New Info]" style="text;strokeColor=none;fillColor=none;align=left;verticalAlign=middle;spacingLeft=4;spacingRight=4;overflow=hidden;points=[[0,0.5],[1,0.5]];portConstraint=eastwest;rotatable=0;whiteSpace=wrap;html=1;" vertex="1" parent="1">
          <mxGeometry x="410" y="1530" width="70" height="30" as="geometry" />
        </mxCell>
        <mxCell id="qYFZ3KALTNU94oA9vc0l-154" value="" style="endArrow=classic;html=1;rounded=0;exitX=0.5;exitY=1;exitDx=0;exitDy=0;entryX=0.363;entryY=0.056;entryDx=0;entryDy=0;entryPerimeter=0;" edge="1" parent="1" target="qYFZ3KALTNU94oA9vc0l-155">
          <mxGeometry width="50" height="50" relative="1" as="geometry">
            <mxPoint x="479.34999999999997" y="1560" as="sourcePoint" />
            <mxPoint x="479.34999999999997" y="1610" as="targetPoint" />
          </mxGeometry>
        </mxCell>
        <mxCell id="qYFZ3KALTNU94oA9vc0l-155" value="Update Patient&amp;nbsp;&lt;div&gt;Information&lt;/div&gt;" style="rounded=1;whiteSpace=wrap;html=1;" vertex="1" parent="1">
          <mxGeometry x="425" y="1600" width="150" height="40" as="geometry" />
        </mxCell>
        <mxCell id="qYFZ3KALTNU94oA9vc0l-161" value="" style="endArrow=none;html=1;rounded=0;entryX=0.5;entryY=1;entryDx=0;entryDy=0;" edge="1" parent="1" target="qYFZ3KALTNU94oA9vc0l-128">
          <mxGeometry width="50" height="50" relative="1" as="geometry">
            <mxPoint x="710" y="1740" as="sourcePoint" />
            <mxPoint x="709.38" y="1590" as="targetPoint" />
          </mxGeometry>
        </mxCell>
        <mxCell id="qYFZ3KALTNU94oA9vc0l-162" value="[Not Present]" style="text;strokeColor=none;fillColor=none;align=left;verticalAlign=middle;spacingLeft=4;spacingRight=4;overflow=hidden;points=[[0,0.5],[1,0.5]];portConstraint=eastwest;rotatable=0;whiteSpace=wrap;html=1;" vertex="1" parent="1">
          <mxGeometry x="425" y="1320" width="110" height="30" as="geometry" />
        </mxCell>
        <mxCell id="qYFZ3KALTNU94oA9vc0l-163" value="" style="endArrow=classic;html=1;rounded=0;exitX=0.5;exitY=1;exitDx=0;exitDy=0;" edge="1" parent="1">
          <mxGeometry width="50" height="50" relative="1" as="geometry">
            <mxPoint x="519.55" y="1350" as="sourcePoint" />
            <mxPoint x="519.55" y="1400" as="targetPoint" />
          </mxGeometry>
        </mxCell>
        <mxCell id="qYFZ3KALTNU94oA9vc0l-164" value="Wait Until Arrival" style="rounded=1;whiteSpace=wrap;html=1;" vertex="1" parent="1">
          <mxGeometry x="450" y="1400" width="150" height="40" as="geometry" />
        </mxCell>
        <mxCell id="qYFZ3KALTNU94oA9vc0l-166" value="" style="endArrow=none;html=1;rounded=0;" edge="1" parent="1">
          <mxGeometry width="50" height="50" relative="1" as="geometry">
            <mxPoint x="230" y="1480" as="sourcePoint" />
            <mxPoint x="229.66000000000003" y="1350" as="targetPoint" />
          </mxGeometry>
        </mxCell>
        <mxCell id="qYFZ3KALTNU94oA9vc0l-167" value="" style="rhombus;whiteSpace=wrap;html=1;" vertex="1" parent="1">
          <mxGeometry x="375" y="1660" width="40" height="40" as="geometry" />
        </mxCell>
        <mxCell id="qYFZ3KALTNU94oA9vc0l-168" value="" style="endArrow=classic;html=1;rounded=0;entryX=0.5;entryY=0;entryDx=0;entryDy=0;" edge="1" parent="1" source="qYFZ3KALTNU94oA9vc0l-151" target="qYFZ3KALTNU94oA9vc0l-167">
          <mxGeometry width="50" height="50" relative="1" as="geometry">
            <mxPoint x="395" y="1530" as="sourcePoint" />
            <mxPoint x="400" y="1530" as="targetPoint" />
          </mxGeometry>
        </mxCell>
        <mxCell id="qYFZ3KALTNU94oA9vc0l-169" value="" style="endArrow=classic;html=1;rounded=0;entryX=-0.004;entryY=0.592;entryDx=0;entryDy=0;entryPerimeter=0;" edge="1" parent="1" target="qYFZ3KALTNU94oA9vc0l-97">
          <mxGeometry width="50" height="50" relative="1" as="geometry">
            <mxPoint x="395" y="1740" as="sourcePoint" />
            <mxPoint x="580" y="1740" as="targetPoint" />
          </mxGeometry>
        </mxCell>
        <mxCell id="qYFZ3KALTNU94oA9vc0l-172" value="" style="endArrow=none;html=1;rounded=0;entryX=0;entryY=0.5;entryDx=0;entryDy=0;" edge="1" parent="1">
          <mxGeometry width="50" height="50" relative="1" as="geometry">
            <mxPoint x="519.35" y="1480" as="sourcePoint" />
            <mxPoint x="519.35" y="1440.0000000000002" as="targetPoint" />
          </mxGeometry>
        </mxCell>
        <mxCell id="qYFZ3KALTNU94oA9vc0l-175" value="" style="rhombus;whiteSpace=wrap;html=1;" vertex="1" parent="1">
          <mxGeometry x="375" y="1460" width="40" height="40" as="geometry" />
        </mxCell>
        <mxCell id="qYFZ3KALTNU94oA9vc0l-176" value="" style="endArrow=classic;html=1;rounded=0;entryX=0.5;entryY=0;entryDx=0;entryDy=0;" edge="1" parent="1" target="qYFZ3KALTNU94oA9vc0l-151">
          <mxGeometry width="50" height="50" relative="1" as="geometry">
            <mxPoint x="395" y="1530" as="sourcePoint" />
            <mxPoint x="395" y="1600" as="targetPoint" />
          </mxGeometry>
        </mxCell>
        <mxCell id="qYFZ3KALTNU94oA9vc0l-151" value="" style="rhombus;whiteSpace=wrap;html=1;" vertex="1" parent="1">
          <mxGeometry x="375" y="1540" width="40" height="40" as="geometry" />
        </mxCell>
        <mxCell id="qYFZ3KALTNU94oA9vc0l-178" value="" style="endArrow=classic;html=1;rounded=0;" edge="1" parent="1">
          <mxGeometry width="50" height="50" relative="1" as="geometry">
            <mxPoint x="394.68" y="1500" as="sourcePoint" />
            <mxPoint x="394.68" y="1540" as="targetPoint" />
          </mxGeometry>
        </mxCell>
        <mxCell id="qYFZ3KALTNU94oA9vc0l-179" value="" style="endArrow=none;html=1;rounded=0;" edge="1" parent="1">
          <mxGeometry width="50" height="50" relative="1" as="geometry">
            <mxPoint x="479.73" y="1680" as="sourcePoint" />
            <mxPoint x="479.35" y="1640" as="targetPoint" />
          </mxGeometry>
        </mxCell>
        <mxCell id="qYFZ3KALTNU94oA9vc0l-180" value="" style="endArrow=classic;html=1;rounded=0;entryX=1;entryY=0.5;entryDx=0;entryDy=0;" edge="1" parent="1" target="qYFZ3KALTNU94oA9vc0l-167">
          <mxGeometry width="50" height="50" relative="1" as="geometry">
            <mxPoint x="480" y="1680" as="sourcePoint" />
            <mxPoint x="420" y="1680" as="targetPoint" />
          </mxGeometry>
        </mxCell>
        <mxCell id="qYFZ3KALTNU94oA9vc0l-182" value="" style="endArrow=none;html=1;rounded=0;" edge="1" parent="1">
          <mxGeometry width="50" height="50" relative="1" as="geometry">
            <mxPoint x="395.06" y="1740" as="sourcePoint" />
            <mxPoint x="394.68" y="1700" as="targetPoint" />
          </mxGeometry>
        </mxCell>
        <mxCell id="qYFZ3KALTNU94oA9vc0l-184" value="[Present]" style="text;strokeColor=none;fillColor=none;align=left;verticalAlign=middle;spacingLeft=4;spacingRight=4;overflow=hidden;points=[[0,0.5],[1,0.5]];portConstraint=eastwest;rotatable=0;whiteSpace=wrap;html=1;" vertex="1" parent="1">
          <mxGeometry x="620" y="1320" width="80" height="30" as="geometry" />
        </mxCell>
        <mxCell id="qYFZ3KALTNU94oA9vc0l-185" value="" style="endArrow=none;html=1;rounded=0;entryX=0;entryY=0.5;entryDx=0;entryDy=0;" edge="1" parent="1" target="qYFZ3KALTNU94oA9vc0l-188">
          <mxGeometry width="50" height="50" relative="1" as="geometry">
            <mxPoint x="630" y="1350" as="sourcePoint" />
            <mxPoint x="660" y="1300" as="targetPoint" />
          </mxGeometry>
        </mxCell>
        <mxCell id="qYFZ3KALTNU94oA9vc0l-186" value="" style="endArrow=classic;html=1;rounded=0;entryX=1;entryY=0.5;entryDx=0;entryDy=0;" edge="1" parent="1" target="qYFZ3KALTNU94oA9vc0l-195">
          <mxGeometry width="50" height="50" relative="1" as="geometry">
            <mxPoint x="830" y="1480" as="sourcePoint" />
            <mxPoint x="705" y="1470" as="targetPoint" />
          </mxGeometry>
        </mxCell>
        <mxCell id="qYFZ3KALTNU94oA9vc0l-188" value="" style="rhombus;whiteSpace=wrap;html=1;" vertex="1" parent="1">
          <mxGeometry x="685" y="1330" width="40" height="40" as="geometry" />
        </mxCell>
        <mxCell id="qYFZ3KALTNU94oA9vc0l-189" value="" style="endArrow=classic;html=1;rounded=0;" edge="1" parent="1" target="qYFZ3KALTNU94oA9vc0l-195">
          <mxGeometry width="50" height="50" relative="1" as="geometry">
            <mxPoint x="630" y="1480" as="sourcePoint" />
            <mxPoint x="680" y="1490" as="targetPoint" />
          </mxGeometry>
        </mxCell>
        <mxCell id="qYFZ3KALTNU94oA9vc0l-190" value="[Not Present]" style="text;strokeColor=none;fillColor=none;align=left;verticalAlign=middle;spacingLeft=4;spacingRight=4;overflow=hidden;points=[[0,0.5],[1,0.5]];portConstraint=eastwest;rotatable=0;whiteSpace=wrap;html=1;" vertex="1" parent="1">
          <mxGeometry x="735" y="1320" width="110" height="30" as="geometry" />
        </mxCell>
        <mxCell id="qYFZ3KALTNU94oA9vc0l-191" value="" style="endArrow=classic;html=1;rounded=0;" edge="1" parent="1">
          <mxGeometry width="50" height="50" relative="1" as="geometry">
            <mxPoint x="830" y="1350" as="sourcePoint" />
            <mxPoint x="829.55" y="1410" as="targetPoint" />
          </mxGeometry>
        </mxCell>
        <mxCell id="qYFZ3KALTNU94oA9vc0l-192" value="Wait Until Arrival" style="rounded=1;whiteSpace=wrap;html=1;" vertex="1" parent="1">
          <mxGeometry x="760" y="1410" width="150" height="40" as="geometry" />
        </mxCell>
        <mxCell id="qYFZ3KALTNU94oA9vc0l-193" value="" style="endArrow=none;html=1;rounded=0;" edge="1" parent="1">
          <mxGeometry width="50" height="50" relative="1" as="geometry">
            <mxPoint x="630" y="1480" as="sourcePoint" />
            <mxPoint x="630" y="1350" as="targetPoint" />
          </mxGeometry>
        </mxCell>
        <mxCell id="qYFZ3KALTNU94oA9vc0l-194" value="" style="endArrow=none;html=1;rounded=0;entryX=0;entryY=0.5;entryDx=0;entryDy=0;" edge="1" parent="1">
          <mxGeometry width="50" height="50" relative="1" as="geometry">
            <mxPoint x="829" y="1480" as="sourcePoint" />
            <mxPoint x="829.35" y="1450.0000000000002" as="targetPoint" />
          </mxGeometry>
        </mxCell>
        <mxCell id="qYFZ3KALTNU94oA9vc0l-195" value="" style="rhombus;whiteSpace=wrap;html=1;" vertex="1" parent="1">
          <mxGeometry x="690" y="1460" width="40" height="40" as="geometry" />
        </mxCell>
        <mxCell id="qYFZ3KALTNU94oA9vc0l-200" value="" style="endArrow=none;html=1;rounded=0;" edge="1" parent="1">
          <mxGeometry width="50" height="50" relative="1" as="geometry">
            <mxPoint x="725" y="1350" as="sourcePoint" />
            <mxPoint x="830" y="1350" as="targetPoint" />
          </mxGeometry>
        </mxCell>
        <mxCell id="qYFZ3KALTNU94oA9vc0l-201" value="" style="endArrow=classic;html=1;rounded=0;" edge="1" parent="1">
          <mxGeometry width="50" height="50" relative="1" as="geometry">
            <mxPoint x="709.63" y="1500" as="sourcePoint" />
            <mxPoint x="709.63" y="1540" as="targetPoint" />
          </mxGeometry>
        </mxCell>
        <mxCell id="qYFZ3KALTNU94oA9vc0l-202" value="" style="endArrow=classic;html=1;rounded=0;entryX=1;entryY=0.5;entryDx=0;entryDy=0;" edge="1" parent="1">
          <mxGeometry width="50" height="50" relative="1" as="geometry">
            <mxPoint x="710" y="1740" as="sourcePoint" />
            <mxPoint x="635" y="1740" as="targetPoint" />
          </mxGeometry>
        </mxCell>
        <mxCell id="qYFZ3KALTNU94oA9vc0l-203" value="Change Existing Appointment" style="rounded=1;whiteSpace=wrap;html=1;" vertex="1" parent="1">
          <mxGeometry x="540" y="810" width="150" height="40" as="geometry" />
        </mxCell>
        <mxCell id="qYFZ3KALTNU94oA9vc0l-204" value="" style="endArrow=classic;html=1;rounded=0;entryX=1;entryY=0.5;entryDx=0;entryDy=0;" edge="1" parent="1" target="qYFZ3KALTNU94oA9vc0l-206">
          <mxGeometry width="50" height="50" relative="1" as="geometry">
            <mxPoint x="625" y="900" as="sourcePoint" />
            <mxPoint x="500" y="880" as="targetPoint" />
          </mxGeometry>
        </mxCell>
        <mxCell id="qYFZ3KALTNU94oA9vc0l-205" value="" style="endArrow=classic;html=1;rounded=0;entryX=0;entryY=0.5;entryDx=0;entryDy=0;" edge="1" parent="1" target="qYFZ3KALTNU94oA9vc0l-206">
          <mxGeometry width="50" height="50" relative="1" as="geometry">
            <mxPoint x="400" y="900" as="sourcePoint" />
            <mxPoint x="475" y="900" as="targetPoint" />
          </mxGeometry>
        </mxCell>
        <mxCell id="qYFZ3KALTNU94oA9vc0l-206" value="" style="rhombus;whiteSpace=wrap;html=1;" vertex="1" parent="1">
          <mxGeometry x="480" y="880" width="40" height="40" as="geometry" />
        </mxCell>
        <mxCell id="qYFZ3KALTNU94oA9vc0l-207" value="" style="endArrow=none;html=1;rounded=0;entryX=0.465;entryY=0.986;entryDx=0;entryDy=0;entryPerimeter=0;" edge="1" parent="1" target="qYFZ3KALTNU94oA9vc0l-95">
          <mxGeometry width="50" height="50" relative="1" as="geometry">
            <mxPoint x="400" y="900" as="sourcePoint" />
            <mxPoint x="394.71" y="805" as="targetPoint" />
          </mxGeometry>
        </mxCell>
        <mxCell id="qYFZ3KALTNU94oA9vc0l-208" value="" style="endArrow=none;html=1;rounded=0;entryX=0.465;entryY=0.986;entryDx=0;entryDy=0;entryPerimeter=0;" edge="1" parent="1">
          <mxGeometry width="50" height="50" relative="1" as="geometry">
            <mxPoint x="625" y="901" as="sourcePoint" />
            <mxPoint x="625" y="850" as="targetPoint" />
          </mxGeometry>
        </mxCell>
        <mxCell id="qYFZ3KALTNU94oA9vc0l-210" value="" style="endArrow=classic;html=1;rounded=0;entryX=0.467;entryY=0;entryDx=0;entryDy=0;entryPerimeter=0;" edge="1" parent="1" target="qYFZ3KALTNU94oA9vc0l-95">
          <mxGeometry width="50" height="50" relative="1" as="geometry">
            <mxPoint x="400" y="780" as="sourcePoint" />
            <mxPoint x="509.8399999999999" y="800" as="targetPoint" />
          </mxGeometry>
        </mxCell>
        <mxCell id="qYFZ3KALTNU94oA9vc0l-211" value="" style="endArrow=none;html=1;rounded=0;" edge="1" parent="1">
          <mxGeometry width="50" height="50" relative="1" as="geometry">
            <mxPoint x="400" y="780" as="sourcePoint" />
            <mxPoint x="490" y="780" as="targetPoint" />
          </mxGeometry>
        </mxCell>
        <mxCell id="qYFZ3KALTNU94oA9vc0l-212" value="" style="rhombus;whiteSpace=wrap;html=1;" vertex="1" parent="1">
          <mxGeometry x="480" y="760" width="40" height="40" as="geometry" />
        </mxCell>
        <mxCell id="qYFZ3KALTNU94oA9vc0l-214" value="Make Appointment" style="rounded=1;whiteSpace=wrap;html=1;" vertex="1" parent="1">
          <mxGeometry x="425" y="700" width="150" height="40" as="geometry" />
        </mxCell>
        <mxCell id="qYFZ3KALTNU94oA9vc0l-215" value="" style="endArrow=classic;html=1;rounded=0;exitX=0.5;exitY=1;exitDx=0;exitDy=0;entryX=0.5;entryY=0;entryDx=0;entryDy=0;" edge="1" parent="1" source="qYFZ3KALTNU94oA9vc0l-214" target="qYFZ3KALTNU94oA9vc0l-212">
          <mxGeometry width="50" height="50" relative="1" as="geometry">
            <mxPoint x="410" y="790" as="sourcePoint" />
            <mxPoint x="500" y="750" as="targetPoint" />
          </mxGeometry>
        </mxCell>
        <mxCell id="qYFZ3KALTNU94oA9vc0l-216" value="" style="endArrow=none;html=1;rounded=0;" edge="1" parent="1">
          <mxGeometry width="50" height="50" relative="1" as="geometry">
            <mxPoint x="520" y="779.86" as="sourcePoint" />
            <mxPoint x="610" y="779.86" as="targetPoint" />
          </mxGeometry>
        </mxCell>
        <mxCell id="qYFZ3KALTNU94oA9vc0l-217" value="" style="endArrow=classic;html=1;rounded=0;entryX=0.471;entryY=-0.002;entryDx=0;entryDy=0;entryPerimeter=0;" edge="1" parent="1" target="qYFZ3KALTNU94oA9vc0l-203">
          <mxGeometry width="50" height="50" relative="1" as="geometry">
            <mxPoint x="610" y="780" as="sourcePoint" />
            <mxPoint x="410" y="820" as="targetPoint" />
          </mxGeometry>
        </mxCell>
        <mxCell id="qYFZ3KALTNU94oA9vc0l-218" value="" style="endArrow=classic;html=1;rounded=0;exitX=0.5;exitY=1;exitDx=0;exitDy=0;entryX=0.5;entryY=0;entryDx=0;entryDy=0;" edge="1" parent="1" target="qYFZ3KALTNU94oA9vc0l-214">
          <mxGeometry width="50" height="50" relative="1" as="geometry">
            <mxPoint x="499.85" y="660" as="sourcePoint" />
            <mxPoint x="499.85" y="680" as="targetPoint" />
          </mxGeometry>
        </mxCell>
        <mxCell id="qYFZ3KALTNU94oA9vc0l-219" value="[Create]" style="text;strokeColor=none;fillColor=none;align=left;verticalAlign=middle;spacingLeft=4;spacingRight=4;overflow=hidden;points=[[0,0.5],[1,0.5]];portConstraint=eastwest;rotatable=0;whiteSpace=wrap;html=1;" vertex="1" parent="1">
          <mxGeometry x="405" y="750" width="80" height="30" as="geometry" />
        </mxCell>
        <mxCell id="qYFZ3KALTNU94oA9vc0l-220" value="[Change]" style="text;strokeColor=none;fillColor=none;align=left;verticalAlign=middle;spacingLeft=4;spacingRight=4;overflow=hidden;points=[[0,0.5],[1,0.5]];portConstraint=eastwest;rotatable=0;whiteSpace=wrap;html=1;" vertex="1" parent="1">
          <mxGeometry x="535" y="750" width="80" height="30" as="geometry" />
        </mxCell>
      </root>
    </mxGraphModel>
  </diagram>
</mxfile>
